# xmcd CD database file
#
# Track frame offsets:
#	150
#	23510
#	50420
#
# Disc length: 983 seconds
#
# Revision: 0
# Processed by: cddbd v1.5PL3 Copyright (c) Steve Scherf et al.
# Submitted via: CDex 1.51
#
DISCID=1803d503
DTITLE=Iceman - Edge of the season
DYEAR=1997
DGENRE=JPop
TTITLE0=Edge of the season
TTITLE1=Nartic boy
TTITLE2=Edge of the season/Original backing track
EXTD=YEAR: 1997
EXTT0=
EXTT1=
EXTT2=
PLAYORDER=
